<svg width="51" height="53" viewBox="0 0 51 53" fill="none" xmlns="http://www.w3.org/2000/svg">
  <path
    d="M48.5768 13.3843H48.0158C47.6841 12.29 47.2208 11.2401 46.6318 10.2475L47.0306 9.8727C47.4869 9.44422 47.738 8.87274 47.738 8.26348C47.738 7.65422 47.4869 7.08284 47.0303 6.65385L44.3732 4.16045C43.9169 3.72913 43.3078 3.49168 42.6582 3.49168C42.0086 3.49168 41.3994 3.72913 40.9454 4.15832L40.547 4.53257C39.4897 3.97754 38.3717 3.54144 37.2077 3.22996V2.70296C37.2078 1.44768 36.1208 0.426392 34.7846 0.426392H31.0279C29.6917 0.426392 28.6047 1.44768 28.6047 2.70296V3.22996C27.4408 3.54134 26.3222 3.97754 25.2627 4.53297L24.8662 4.16045C24.4097 3.72913 23.8006 3.49168 23.1511 3.49178C22.5015 3.49178 21.8924 3.72933 21.4384 4.15842L18.7818 6.65436C18.3255 7.08284 18.0744 7.65432 18.0744 8.26358C18.0744 8.87284 18.3255 9.44422 18.7817 9.8727L19.1804 10.2474C18.589 11.2431 18.1254 12.2932 17.7956 13.3843H17.2325C15.8964 13.3843 14.8093 14.4056 14.8093 15.6609V19.1934C14.8093 20.4487 15.8964 21.47 17.2325 21.47H17.7956C18.1254 22.561 18.589 23.6111 19.1804 24.6069L18.7817 24.9816C18.3254 25.4101 18.0743 25.9816 18.0743 26.5908C18.0743 27.2 18.3254 27.7715 18.7816 28.1999L21.4361 30.6938C21.8924 31.1252 22.5014 31.3626 23.151 31.3626H23.1511C23.8006 31.3626 24.4098 31.1252 24.8639 30.696L25.2626 30.3213C26.3232 30.8773 27.4418 31.3129 28.6046 31.6226V32.1514C28.6046 33.4067 29.6916 34.428 31.0278 34.428H34.7845C36.1206 34.428 37.2077 33.4067 37.2077 32.1514V31.6226C38.3707 31.3128 39.4885 30.8774 40.547 30.3217L40.9431 30.6938C41.3994 31.1252 42.0085 31.3626 42.658 31.3626C43.3077 31.3626 43.9169 31.1251 44.3705 30.6964L47.0306 28.1999C47.4868 27.7713 47.7379 27.1999 47.7379 26.5907C47.7379 25.9815 47.4868 25.4101 47.0306 24.9816L46.6317 24.6068C47.2207 23.6142 47.6839 22.5643 48.0157 21.47H48.5767C49.9128 21.47 50.9999 20.4487 50.9999 19.1934V15.6609C51 14.4056 49.913 13.3843 48.5768 13.3843V13.3843ZM35.0458 32.1513C35.0458 32.2844 34.9262 32.3967 34.7846 32.3967H31.0279C30.8863 32.3967 30.7667 32.2844 30.7667 32.1513V30.8328V24.4301C30.7667 24.0054 30.4854 23.6256 30.0617 23.4779C27.1568 22.4657 25.2051 19.8392 25.2051 16.9421C25.2051 14.6461 26.422 12.4939 28.4597 11.1853C28.5512 11.1266 28.632 11.0786 28.7027 11.0393C28.6988 11.1713 28.6889 11.2969 28.6836 11.3624C28.6755 11.4655 28.669 11.5468 28.669 11.6276V16.4209C28.669 18.621 30.4988 20.4584 32.8346 20.6039C32.8822 20.6069 32.93 20.6069 32.9777 20.6039C35.3118 20.4585 37.1402 18.6211 37.1402 16.4209V11.6276C37.1402 11.5472 37.1339 11.4664 37.1259 11.3639C37.1207 11.2981 37.1107 11.1719 37.1069 11.0392C37.1774 11.0784 37.2578 11.1263 37.349 11.1849C39.3872 12.4938 40.6041 14.646 40.6041 16.942C40.6041 19.8388 38.6535 22.4654 35.7504 23.4779C35.3267 23.6257 35.0456 24.0054 35.0456 24.43V30.8327V32.1513H35.0458ZM48.838 19.1934C48.838 19.3241 48.7159 19.4387 48.5768 19.4387H47.1765C46.6714 19.4387 46.2336 19.7673 46.1221 20.2301C45.7798 21.6512 45.1869 22.9951 44.3598 24.2243C44.0897 24.6256 44.1518 25.1493 44.5092 25.485L45.5021 26.4179C45.5665 26.4784 45.5761 26.5521 45.5761 26.5907C45.5761 26.6292 45.5665 26.703 45.5024 26.7632L42.84 29.2617C42.7791 29.3192 42.7074 29.3313 42.6582 29.3313C42.609 29.3313 42.5374 29.3192 42.4743 29.2595L41.4814 28.3267C41.1234 27.9905 40.5655 27.9326 40.1383 28.1869C39.2156 28.7363 38.2334 29.1722 37.2078 29.4943V25.1056C40.5615 23.6393 42.7664 20.4439 42.7664 16.9419C42.7664 13.9746 41.1973 11.1955 38.5693 9.5079C38.1668 9.24943 36.9425 8.46305 35.8718 9.04204C34.8204 9.61078 34.9251 10.944 34.9698 11.5133C34.9737 11.5628 34.9775 11.6043 34.9783 11.6276V16.4209C34.9783 17.5326 34.0739 18.4646 32.9062 18.5717C31.7369 18.4645 30.8311 17.5325 30.8311 16.4209L30.831 11.6349C30.832 11.6043 30.8359 11.5628 30.8398 11.5131C30.8848 10.9441 30.9905 9.61159 29.9399 9.04255C28.8696 8.46254 27.6435 9.24922 27.2402 9.5079C24.6121 11.1956 23.0431 13.9747 23.0431 16.942C23.0431 20.4445 25.2491 23.6401 28.6047 25.106V29.4944C27.5789 29.1723 26.5955 28.7362 25.67 28.1865C25.4921 28.0809 25.2919 28.0294 25.0927 28.0294C24.8134 28.0294 24.5365 28.1309 24.328 28.3269L23.333 29.2617C23.2721 29.3193 23.2005 29.3314 23.1512 29.3314C23.1019 29.3314 23.0304 29.3193 22.9673 29.2597L20.3106 26.7637C20.2461 26.7031 20.2364 26.6293 20.2364 26.5908C20.2364 26.5522 20.2461 26.4785 20.3106 26.4179L21.3034 25.485C21.6608 25.1493 21.7228 24.6256 21.4528 24.2243C20.6215 22.9886 20.0287 21.6453 19.6909 20.2318C19.5802 19.7682 19.1419 19.4386 18.6361 19.4386H17.2327C17.0936 19.4386 16.9716 19.324 16.9716 19.1933V15.6608C16.9716 15.5278 17.0911 15.4154 17.2327 15.4154H18.6361C19.1419 15.4154 19.5801 15.0859 19.6909 14.6223C20.0287 13.2087 20.6214 11.8654 21.4528 10.6298C21.7228 10.2285 21.6608 9.70482 21.3034 9.36906L20.3105 8.43623C20.2461 8.3757 20.2364 8.30197 20.2364 8.26338C20.2364 8.22479 20.2461 8.15105 20.3106 8.09042L22.9696 5.59225C23.0304 5.53476 23.102 5.52268 23.1513 5.52268C23.2006 5.52268 23.2721 5.53476 23.3353 5.59438L24.3281 6.52721C24.6857 6.86307 25.243 6.92126 25.6701 6.66756C26.9837 5.88738 28.4151 5.32931 29.924 5.00909C30.417 4.90448 30.7669 4.49306 30.7669 4.01847V2.70296C30.7669 2.56992 30.8865 2.45759 31.0281 2.45759H34.7848C34.9264 2.45759 35.046 2.56992 35.046 2.70296V4.01867C35.046 4.49337 35.3959 4.90468 35.8887 5.00929C37.3991 5.32982 38.8289 5.88758 40.1385 6.66726C40.5659 6.92157 41.1237 6.86368 41.4816 6.52751L42.4767 5.59255C42.5375 5.53507 42.6092 5.52298 42.6584 5.52298C42.7077 5.52298 42.7792 5.53507 42.8428 5.59509L45.5023 8.09073C45.5667 8.15126 45.5763 8.22499 45.5763 8.26358C45.5763 8.30217 45.5667 8.37591 45.5022 8.43654L44.5094 9.36937C44.152 9.70513 44.09 10.2288 44.36 10.6301C45.187 11.8593 45.78 13.2031 46.1224 14.6243C46.2338 15.0871 46.6716 15.4156 47.1767 15.4156H48.577C48.7186 15.4156 48.8382 15.528 48.8382 15.661V19.1934H48.838Z"
    fill="black" />
  <path
    d="M39.205 45.1454C38.7829 45.5421 38.7829 46.1851 39.205 46.5818C39.4162 46.7801 39.6928 46.8793 39.9694 46.8793C40.2461 46.8793 40.5227 46.7801 40.7338 46.5818L40.7369 46.579C41.159 46.1824 41.1575 45.5407 40.7352 45.1441C40.313 44.7475 39.6272 44.749 39.205 45.1454V45.1454Z"
    fill="black" />
  <path
    d="M44.213 35.3072L35.6307 39.4479C34.9032 38.74 33.8838 38.2985 32.7562 38.2985H26.8759C26.5466 38.2985 26.4662 38.2739 26.4608 38.2722C26.4131 38.2486 26.2624 38.1156 26.1415 38.0087L26.0879 37.9614C21.3305 33.7541 17.3119 34.0207 12.7419 35.7151C12.0025 35.9893 11.9882 35.9899 11.2457 36.0197L9.91602 36.0206C9.53723 34.947 8.45925 34.17 7.19111 34.17H2.86749C1.2863 34.17 0 35.3799 0 36.867V47.5276C0 49.0131 1.2863 50.2216 2.86749 50.2216H7.19111C8.45914 50.2216 9.53702 49.4456 9.91591 48.3733H12.3482C12.563 48.3733 12.563 48.3733 12.8128 48.4394C12.9036 48.4635 13.0141 48.4928 13.1568 48.5288L24.3446 51.3408C24.8378 51.4659 25.2901 51.5891 25.7276 51.7082C27.161 52.0984 28.3659 52.4264 29.6217 52.4264C31.0411 52.4264 32.5252 52.0074 34.4772 50.7852C34.4866 50.7793 34.496 50.7732 34.5053 50.767L36.6411 49.3361C37.1273 49.0104 37.2403 48.3763 36.8937 47.9196C36.547 47.4627 35.8718 47.3566 35.386 47.6823L33.2643 49.1036C30.4316 50.8737 29.2287 50.5465 26.3292 49.7572C25.8826 49.6356 25.4208 49.5099 24.9061 49.3793L13.7174 46.5672C13.5864 46.5341 13.4836 46.5069 13.3993 46.4845C12.9911 46.3765 12.8384 46.3423 12.3483 46.3423H10.0617V38.0526H11.23C11.2456 38.0526 11.2609 38.0523 11.2765 38.0517L11.3381 38.0492C12.2443 38.0129 12.4978 37.9896 13.5358 37.6046C17.5495 36.1165 20.6477 35.9397 24.6074 39.4418L24.6609 39.4891C25.3376 40.0865 25.7273 40.3299 26.876 40.3299H32.7563C33.4464 40.3299 34.0482 40.6898 34.3619 41.22C34.3653 41.2259 34.3692 41.2315 34.3726 41.2374C34.5127 41.4809 34.5925 41.7593 34.5925 42.0551C34.5925 43.0048 33.7689 43.7773 32.7564 43.7773H23.2265C22.6296 43.7773 22.1455 44.232 22.1455 44.7929C22.1455 45.3538 22.6296 45.8085 23.2265 45.8085H32.7564C34.961 45.8085 36.7545 44.1248 36.7545 42.0551C36.7545 41.7737 36.7204 41.4999 36.6577 41.2362L45.2007 37.1144C46.0093 36.7244 47.115 36.7662 47.6639 37.6031C48.1495 38.3407 47.8824 39.3212 47.043 39.8834L43.2954 42.3909C42.8091 42.7163 42.6956 43.3505 43.0419 43.8074C43.2528 44.0856 43.5856 44.2339 43.9234 44.2339C44.1403 44.2339 44.3593 44.1727 44.5495 44.0455L48.2975 41.5377C50.0775 40.3455 50.5955 38.1947 49.5035 36.5361C48.4296 34.8987 46.1553 34.3704 44.213 35.3072V35.3072ZM7.89961 47.5276C7.89961 47.887 7.57519 48.1904 7.19111 48.1904H2.86749C2.48503 48.1904 2.16203 47.8869 2.16203 47.5276V36.8671C2.16203 36.5 2.47855 36.2013 2.86749 36.2013H7.19111C7.57519 36.2013 7.89961 36.5061 7.89961 36.8671V47.5276Z"
    fill="black" />
</svg>

