<svg width="52" height="53" viewBox="0 0 52 53" fill="none" xmlns="http://www.w3.org/2000/svg">
  <path
    d="M50.299 32.2604V29.9953C50.299 29.5745 49.9645 29.2336 49.5519 29.2336C49.1393 29.2336 48.8048 29.5745 48.8048 29.9953V32.2597H41.6329V25.4782C41.6329 24.4573 40.8183 23.6267 39.8171 23.6267H36.5339V16.3142H42.8482C46.1327 16.3142 48.8048 19.0387 48.8048 22.3877V26.4406C48.8048 26.8613 49.1393 27.2023 49.5519 27.2023C49.9645 27.2023 50.299 26.8613 50.299 26.4406V22.3877C50.299 18.1987 46.9566 14.7908 42.8482 14.7908H36.3447C35.852 13.2743 34.449 12.1767 32.7986 12.1767H30.3214V9.29189C31.3375 9.24619 32.1794 8.50753 32.4035 7.52907H39.8898C41.2932 7.53537 42.4796 6.3216 42.4796 4.88845C42.4796 3.43245 41.3178 2.24782 39.8898 2.24782H32.4034C32.1719 1.23758 31.2818 0.482666 30.2215 0.482666H25.353C24.2926 0.482666 23.4025 1.23758 23.171 2.24782H15.6847C14.2672 2.2401 13.0948 3.44799 13.0948 4.88845C13.0948 6.34445 14.2567 7.52907 15.6847 7.52907H23.1709C23.3951 8.50753 24.237 9.24619 25.2531 9.29189V12.1767H22.7759C21.1254 12.1767 19.7225 13.2743 19.2298 14.7908H13.6138C13.3054 13.9043 12.4751 13.2675 11.5012 13.2675C10.5273 13.2675 9.69697 13.9043 9.38858 14.7908H1.54016C1.12758 14.7908 0.793091 15.1318 0.793091 15.5525C0.793091 15.9732 1.12758 16.3142 1.54016 16.3142H9.25989V23.6267H1.54016C1.12758 23.6267 0.793091 23.9678 0.793091 24.3884C0.793091 24.8091 1.12758 25.1502 1.54016 25.1502H9.38838C9.69677 26.0368 10.5271 26.6737 11.5011 26.6737C12.4751 26.6737 13.3055 26.0368 13.6138 25.1502H19.2296C19.7222 26.6669 21.1252 27.7646 22.7758 27.7646H24.0389C24.4515 27.7646 24.786 27.4236 24.786 27.0029C24.786 26.5822 24.4515 26.2411 24.0389 26.2411H22.7759C21.6573 26.2411 20.7276 25.4012 20.5613 24.3075C20.561 24.3047 20.5604 24.302 20.5601 24.2993C20.5905 24.1592 20.5298 15.9074 20.5603 15.6402C20.5605 15.6385 20.5608 15.637 20.561 15.6354C20.7266 14.5408 21.6568 13.7001 22.7759 13.7001H32.7986C33.9178 13.7001 34.8478 14.5408 35.0135 15.6354C35.0137 15.637 35.014 15.6385 35.0142 15.6402C35.1298 16.6538 35.1151 23.411 35.0144 24.2993C35.0141 24.302 35.0134 24.3048 35.0132 24.3075C34.8468 25.4012 33.9172 26.2411 32.7986 26.2411H27.5254C27.1128 26.2411 26.7783 26.5822 26.7783 27.0029C26.7783 27.4236 27.1128 27.7646 27.5254 27.7646H32.7986C34.4492 27.7646 35.8522 26.6669 36.3448 25.1502H39.8171C39.9945 25.1502 40.1388 25.2973 40.1388 25.4782V32.2604C39.3138 32.267 38.6447 32.9527 38.6447 33.7953V35.2944C38.6447 36.1412 39.3203 36.8301 40.1507 36.8301H50.287C51.1174 36.8301 51.7931 36.1412 51.7931 35.2944V33.7953C51.7931 32.9527 51.1239 32.267 50.299 32.2604ZM32.4627 3.77126H39.8898C40.4939 3.77126 40.9855 4.27247 40.9855 4.88845C40.9855 5.49295 40.4852 6.00868 39.8898 6.00563H32.4627V3.77126ZM23.1118 6.00563H15.6847C15.0806 6.00563 14.589 5.50442 14.589 4.88845C14.589 4.28049 15.0875 3.76852 15.6847 3.77126H23.1118V6.00563ZM12.2482 24.3885C12.2482 24.8086 11.9131 25.1503 11.5011 25.1503C11.0891 25.1503 10.754 24.8086 10.754 24.3885V15.5526C10.754 15.1325 11.0891 14.7909 11.5011 14.7909C11.9131 14.7909 12.2482 15.1325 12.2482 15.5526V24.3885ZM19.0405 23.6267H13.7423V16.3142H19.0405V23.6267ZM28.8273 12.1767H26.7472V9.29453H28.8273V12.1767ZM25.353 7.7711C24.941 7.7711 24.6059 7.42944 24.6059 7.00938V2.76782C24.6059 2.34776 24.941 2.0061 25.353 2.0061H30.2215C30.6335 2.0061 30.9686 2.34776 30.9686 2.76782V7.00938C30.9686 7.42944 30.6335 7.7711 30.2215 7.7711H25.353ZM50.299 35.2944C50.299 35.3011 50.2936 35.3066 50.287 35.3066H40.1507C40.1442 35.3066 40.1388 35.3011 40.1388 35.2944V33.7953C40.1388 33.7887 40.1442 33.7832 40.1507 33.7832H50.287C50.2936 33.7832 50.299 33.7887 50.299 33.7953V35.2944ZM45.9538 39.4656C45.5485 39.0572 44.8892 39.0572 44.4841 39.4654C43.0736 40.886 39.793 44.4591 39.793 46.9523C39.793 50.0017 42.227 52.4827 45.2189 52.4827C48.2107 52.4827 50.6448 50.0017 50.6448 46.9523C50.6448 44.4591 47.3642 40.886 45.9538 39.4656ZM45.2189 50.9592C43.0509 50.9592 41.2871 49.1618 41.2871 46.9523C41.2871 46.0053 42.3245 43.8601 45.2189 40.8706C48.1135 43.8602 49.1507 46.0052 49.1507 46.9523C49.1507 49.1618 47.3869 50.9592 45.2189 50.9592Z"
    fill="black" />
</svg>




