<svg width="51" height="52" viewBox="0 0 51 52" fill="none" xmlns="http://www.w3.org/2000/svg">
  <path
    d="M8.96989 40.2136C8.2559 40.2136 7.56953 40.3953 6.96059 40.7365C3.75286 36.5439 1.99219 31.3356 1.99219 26C1.99219 12.7834 12.5375 2.03125 25.5 2.03125C27.0758 2.03125 28.6509 2.19113 30.1816 2.50653C30.7201 2.61761 31.2462 2.26215 31.3551 1.71228C31.4641 1.16241 31.1155 0.626831 30.5762 0.51535C28.9159 0.17337 27.2081 0 25.5 0C18.6888 0 12.285 2.7045 7.46875 7.6152C2.65249 12.5259 0 19.0553 0 26C0 31.8418 1.94549 37.5428 5.48746 42.1131C5.03144 42.8078 4.7863 43.6243 4.7863 44.4792C4.7863 45.6186 5.22171 46.6898 6.01197 47.4951C6.80184 48.3009 7.8524 48.7448 8.96989 48.7448C10.0874 48.7448 11.138 48.3009 11.9282 47.4951C12.7185 46.6898 13.1535 45.6182 13.1535 44.4788C13.1535 43.3398 12.7185 42.2682 11.9282 41.4629C11.138 40.6571 10.0874 40.2136 8.96989 40.2136V40.2136ZM10.5193 46.059C10.1057 46.4811 9.5551 46.7136 8.96989 46.7136C8.38469 46.7136 7.8345 46.4811 7.4205 46.059C7.0065 45.6369 6.77849 45.0759 6.77849 44.4792C6.77849 43.8821 7.0065 43.3212 7.4205 42.899C7.83411 42.4769 8.38469 42.2448 8.96989 42.2448C9.5551 42.2448 10.1053 42.4773 10.5193 42.899C10.9333 43.3212 11.1613 43.8821 11.1613 44.4792C11.1613 45.0759 10.9333 45.6369 10.5193 46.059V46.059Z"
    fill="black" />
  <path
    d="M45.5119 9.88565C46.5947 8.22931 46.4208 5.96478 44.9885 4.50443C44.1983 3.69907 43.1477 3.25513 42.0302 3.25513C40.9127 3.25513 39.8622 3.69907 39.0719 4.50443C38.2816 5.31018 37.8466 6.38135 37.8466 7.52075C37.8466 8.66016 38.2816 9.73132 39.0719 10.5371C39.8622 11.3428 40.9127 11.7864 42.0302 11.7864C42.7442 11.7864 43.4306 11.6047 44.0395 11.2635C47.2473 15.4565 49.0079 20.6644 49.0079 26C49.0079 39.2166 38.4626 49.9687 25.5001 49.9687C23.9398 49.9687 22.3796 49.812 20.8632 49.5026C20.324 49.3927 19.7991 49.7493 19.6909 50.2992C19.5831 50.8495 19.9329 51.3842 20.4722 51.4945C22.1169 51.8298 23.8087 52 25.5001 52C32.3113 52 38.7151 49.2955 43.5314 44.3848C48.3476 39.4741 51.0001 32.9447 51.0001 26C51.0001 20.1577 49.0542 14.4564 45.5119 9.88565V9.88565ZM40.4808 9.10092C40.0668 8.6788 39.8388 8.11783 39.8388 7.52075C39.8388 6.92407 40.0668 6.3631 40.4808 5.94098C40.8944 5.51886 41.445 5.28638 42.0302 5.28638C42.6154 5.28638 43.166 5.51886 43.58 5.94098C44.4341 6.81219 44.4341 8.22971 43.58 9.10092C43.166 9.52264 42.6154 9.75513 42.0302 9.75513C41.4446 9.75513 40.8944 9.52264 40.4808 9.10092Z"
    fill="black" />
  <path
    d="M21.3896 43.4688C21.3896 44.0297 21.8359 44.4844 22.3857 44.4844H28.614C29.1642 44.4844 29.6101 44.0297 29.6101 43.4688V41.4998C30.9198 41.1404 32.172 40.6111 33.3486 39.92L34.712 41.3102C34.8988 41.5006 35.1521 41.6077 35.4166 41.6077C35.6805 41.6077 35.9341 41.5006 36.1209 41.3098L40.5232 36.818C40.9119 36.4213 40.9119 35.7782 40.5232 35.3818L39.1613 33.9933C39.8391 32.7936 40.3582 31.5169 40.7107 30.1815H42.6344C43.1846 30.1815 43.6305 29.7269 43.6305 29.1659V22.8155C43.6305 22.2545 43.1846 21.7998 42.6344 21.7998H40.7103C40.3578 20.4648 39.8391 19.1882 39.1613 17.9885L40.5158 16.6075C40.7026 16.417 40.8076 16.1584 40.8076 15.889C40.8072 15.6196 40.7022 15.3609 40.5154 15.1705L36.1096 10.6819C35.7209 10.2856 35.0902 10.2856 34.7011 10.6823L33.3486 12.0617C32.172 11.3706 30.9198 10.8414 29.6101 10.482V8.53125C29.6101 7.97028 29.1642 7.51562 28.614 7.51562H22.3857C21.8359 7.51562 21.3896 7.97028 21.3896 8.53125V10.4824C20.0803 10.8414 18.8282 11.3706 17.6516 12.0617L16.2987 10.6823C15.91 10.286 15.2792 10.2856 14.8901 10.6819L10.4848 15.1709C10.2976 15.3613 10.1925 15.6196 10.1925 15.889C10.1925 16.1584 10.2976 16.417 10.4844 16.6075L11.8388 17.9885C11.161 19.1882 10.642 20.4644 10.2894 21.7998H8.36922C7.81904 21.7998 7.37313 22.2545 7.37313 22.8151L7.36963 29.1655C7.36924 29.4349 7.4743 29.6935 7.66106 29.884C7.84783 30.0744 8.10114 30.1815 8.36572 30.1815H10.2894C10.642 31.5169 11.161 32.7936 11.8388 33.9933L10.477 35.3818C10.0883 35.7782 10.0879 36.4213 10.477 36.818L14.8792 41.3098C15.066 41.5002 15.3193 41.6077 15.5835 41.6077H15.5839C15.8481 41.6077 16.1014 41.5006 16.2882 41.3102L17.6512 39.92C18.8282 40.6111 20.0803 41.1404 21.3896 41.4998V43.4688ZM18.0418 37.784C17.6477 37.5242 17.129 37.5805 16.7967 37.9189L15.5839 39.1555L12.5898 36.1003L13.8014 34.8645C14.1333 34.5261 14.1886 33.9973 13.9337 33.5954C13.0306 32.1703 12.3956 30.6084 12.047 28.9525C11.9482 28.4847 11.5427 28.1503 11.0731 28.1503H9.3622L9.36454 23.8311H11.0731C11.5427 23.8311 11.9482 23.497 12.047 23.0289C12.3956 21.3734 13.0306 19.8114 13.9337 18.3864C14.1886 17.9845 14.1333 17.4557 13.8014 17.1172L12.5976 15.8894L15.594 12.8365L16.7967 14.0632C17.129 14.4016 17.6473 14.4576 18.0418 14.1981C19.4391 13.2773 20.971 12.6299 22.5951 12.2744C23.0538 12.1736 23.3818 11.7598 23.3818 11.2814V9.54688H27.6179V11.281C27.6179 11.7598 27.9456 12.1736 28.4047 12.274C30.0284 12.6299 31.5607 13.2769 32.9579 14.1977C33.3521 14.4576 33.8708 14.4016 34.2027 14.0628L35.4057 12.8365L38.4022 15.8894L37.1983 17.1169C36.866 17.4557 36.8112 17.9845 37.066 18.3864C37.9691 19.8114 38.6038 21.3734 38.9528 23.0289C39.0512 23.497 39.457 23.8311 39.9267 23.8311H41.6383V28.1503H39.9267C39.457 28.1503 39.0516 28.4847 38.9528 28.9525C38.6041 30.608 37.9691 32.1703 37.066 33.595C36.8112 33.9973 36.8664 34.5261 37.1983 34.8645L38.41 36.0999L35.4159 39.1551L34.203 37.9189C33.8708 37.5801 33.3521 37.5242 32.9579 37.784C31.5603 38.7048 30.0284 39.3519 28.4047 39.7078C27.9456 39.8085 27.6179 40.2219 27.6179 40.7008V42.4531H23.3818V40.7008C23.3818 40.2223 23.0538 39.8085 22.5951 39.7078C20.9714 39.3523 19.4395 38.7048 18.0418 37.784V37.784Z"
    fill="black" />
  <path
    d="M33.7305 26C33.7305 21.3726 30.0383 17.608 25.4999 17.608C20.9614 17.608 17.2693 21.3726 17.2693 26C17.2693 30.6275 20.9614 34.392 25.4999 34.392C30.0383 34.392 33.7305 30.6275 33.7305 26ZM19.2615 26C19.2615 22.4926 22.0599 19.6393 25.4999 19.6393C28.9399 19.6393 31.7383 22.493 31.7383 26C31.7383 29.5071 28.9399 32.3608 25.4999 32.3608C22.0599 32.3608 19.2615 29.5075 19.2615 26Z"
    fill="black" />
</svg>

